<svg xmlns="http://www.w3.org/2000/svg" width="500" height="500" viewBox="0 0 500 500">
<g>
<path d="M 263.56 248.83 C250.28,253.19 234.61,250.51 225.78,242.36 C222.02,238.90 220.54,238.22 215.45,237.64 C200.57,235.94 190.36,230.21 186.28,221.30 C184.02,216.35 183.79,214.83 184.25,207.54 C185.07,194.27 189.91,186.24 201.82,178.33 C216.36,168.67 244.92,164.47 269.00,168.44 C298.08,173.23 314.18,186.62 315.68,207.26 C316.95,224.76 306.54,235.19 285.34,237.64 C280.37,238.21 278.81,238.93 274.83,242.49 C271.74,245.25 267.91,247.40 263.56,248.83 ZM 181.43 245.87 C182.87,248.65 182.05,250.52 180.50,248.00 C180.16,247.45 178.16,247.00 176.06,247.00 C171.44,247.00 166.13,244.91 163.57,242.08 C162.54,240.94 161.10,240.00 160.38,240.00 C157.05,240.00 149.00,230.33 149.00,226.33 C149.00,225.58 150.53,224.24 152.40,223.34 C155.80,221.72 155.81,221.70 156.62,212.61 L 157.43 203.50 L 158.05 212.50 C158.39,217.45 158.99,222.47 159.37,223.66 C160.43,226.89 162.97,227.38 165.66,224.85 C167.66,222.97 168.00,221.68 168.00,216.05 C168.00,206.84 169.66,194.57 172.09,185.87 C172.32,185.05 172.53,184.28 172.73,183.57 C174.63,176.80 175.23,174.65 174.55,174.11 C174.23,173.86 173.64,173.95 172.78,174.09 C172.58,174.13 172.37,174.16 172.14,174.19 C170.41,174.45 169.00,174.48 169.00,174.26 C169.00,172.92 171.37,169.87 173.14,168.92 C174.60,168.14 175.04,168.13 174.57,168.89 C172.66,171.97 177.22,168.19 182.43,162.37 C188.34,155.76 199.87,146.62 205.50,144.08 C246.52,125.61 292.31,133.43 317.03,163.13 C323.86,171.33 324.89,173.63 322.55,175.34 C320.21,177.05 321.12,179.92 325.41,184.33 C329.71,188.76 330.52,194.16 330.42,217.50 C330.36,231.45 329.98,236.50 328.73,239.93 C327.84,242.37 327.34,244.73 327.61,245.18 C327.89,245.63 325.83,246.00 323.03,246.00 L 317.95 246.00 L 319.32 243.25 C322.09,237.72 323.50,227.57 323.39,214.00 C323.18,187.51 316.29,172.07 299.62,160.74 C285.74,151.31 271.12,147.48 249.50,147.63 C231.42,147.74 222.03,149.76 208.46,156.43 C197.50,161.82 192.05,166.47 185.60,175.94 C179.91,184.29 177.75,191.11 176.05,206.10 C174.41,220.50 176.57,236.47 181.43,245.87 ZM 252.00 279.79 C236.88,279.91 223.38,280.21 222.00,280.46 C218.41,281.11 207.22,276.11 203.83,272.35 C202.91,271.33 201.83,269.19 201.43,267.59 C200.78,264.99 200.91,264.76 202.60,265.45 C218.14,271.82 228.14,273.50 250.50,273.49 C262.20,273.49 271.61,273.00 275.00,272.22 C283.21,270.34 294.37,266.88 295.45,265.88 C296.87,264.56 300.00,264.82 300.00,266.25 C299.99,266.94 299.13,268.91 298.08,270.64 C295.96,274.11 282.60,281.49 280.64,280.28 C280.02,279.89 267.13,279.67 252.00,279.79 ZM 290.83 263.69 C283.34,266.18 271.16,268.07 270.42,266.86 C270.14,266.42 271.07,265.77 272.48,265.42 C276.53,264.40 287.00,257.21 287.00,255.44 C287.00,252.90 292.54,248.00 295.42,248.00 C298.17,248.00 302.00,251.11 302.00,253.35 C302.00,254.10 300.97,256.23 299.72,258.10 C297.94,260.75 295.97,261.98 290.83,263.69 ZM 283.08 201.90 C285.99,203.67 286.62,203.73 289.04,202.48 C292.16,200.87 293.00,199.18 293.00,194.52 C293.00,191.98 292.18,190.48 289.47,188.10 C287.52,186.40 285.07,185.00 284.01,185.00 C281.17,185.00 277.56,186.88 276.19,189.07 C274.86,191.20 275.95,191.63 278.82,190.10 C280.31,189.29 280.46,189.78 280.16,194.56 C279.83,199.68 279.96,200.01 283.08,201.90 ZM 243.33 234.06 C250.73,237.42 257.31,235.98 262.44,229.89 L 265.30 226.50 L 251.01 226.22 C243.15,226.07 236.50,226.17 236.23,226.44 C235.07,227.59 239.47,232.31 243.33,234.06 ZM 214.45 200.55 C217.45,203.54 219.90,203.65 223.37,200.93 C227.35,197.79 226.93,193.69 222.12,188.88 C219.69,186.46 217.30,185.00 215.75,185.00 C213.25,185.00 207.44,188.77 208.42,189.76 C208.71,190.05 209.66,189.70 210.52,188.98 C212.60,187.25 215.09,189.31 213.20,191.20 C211.18,193.22 211.81,197.90 214.45,200.55 ZM 278.34 226.07 C282.47,228.58 284.96,228.50 289.10,225.71 C292.58,223.37 293.90,220.50 292.26,218.86 C290.79,217.39 277.44,217.21 275.50,218.62 C273.15,220.34 274.42,223.68 278.34,226.07 ZM 208.92 225.08 C212.38,228.53 216.10,228.85 220.66,226.07 C224.17,223.93 225.93,220.19 223.99,219.00 C222.48,218.06 210.13,218.40 207.75,219.45 C205.31,220.52 205.55,221.71 208.92,225.08 ZM 268.66 175.52 C270.74,177.60 280.50,177.23 280.50,175.07 C280.50,173.61 278.33,172.78 271.83,171.74 C267.61,171.06 266.06,172.92 268.66,175.52 ZM 341.46 237.93 C342.22,239.16 340.70,240.05 339.32,239.18 C338.54,238.70 338.62,236.63 339.59,232.00 C340.34,228.43 340.97,224.46 340.98,223.19 C340.99,221.85 341.44,221.15 342.04,221.53 C343.29,222.30 343.01,237.00 341.75,237.00 C341.27,237.00 341.14,237.42 341.46,237.93 ZM 155.36 174.50 C155.05,175.32 153.71,176.00 152.39,176.00 C149.69,176.00 149.19,174.53 151.58,173.61 C154.36,172.54 155.97,172.92 155.36,174.50 ZM 179.81 148.87 C179.13,149.77 178.44,150.69 178.28,150.92 C178.13,151.15 178.00,150.15 178.00,148.70 C178.00,146.75 178.40,146.21 179.53,146.65 C180.77,147.13 180.82,147.54 179.81,148.87 Z" fill="rgb(8,26,88)" data-index="0"></path>
<path d="M 341.46 237.93 C341.14,237.42 341.27,237.00 341.75,237.00 C343.01,237.00 343.29,222.30 342.04,221.53 C341.44,221.15 340.99,221.85 340.98,223.19 C340.97,224.46 340.34,228.43 339.59,232.00 C338.62,236.63 338.54,238.70 339.32,239.18 C339.76,239.46 340.21,239.56 340.60,239.52 C338.64,240.37 336.73,241.62 336.31,242.34 C334.82,244.87 331.17,246.00 324.54,246.00 L 323.03 246.00 C325.83,246.00 327.89,245.63 327.61,245.18 C327.34,244.73 327.84,242.37 328.73,239.93 C329.98,236.50 330.36,231.45 330.42,217.50 C330.52,194.16 329.71,188.76 325.41,184.33 C321.12,179.92 320.21,177.05 322.55,175.34 C324.89,173.63 323.86,171.33 317.03,163.13 C294.52,136.08 254.53,127.18 216.58,139.76 C226.99,136.25 237.86,134.00 245.25,134.00 C248.41,134.00 251.90,133.19 254.63,131.83 C258.71,129.79 259.47,129.73 266.76,130.84 C284.72,133.59 307.93,144.65 317.09,154.83 C322.37,160.70 329.18,170.20 330.30,173.25 C330.82,174.67 330.37,175.00 327.97,175.00 C324.53,175.00 324.52,175.05 326.60,181.00 C327.47,183.48 328.49,187.30 328.87,189.50 C329.25,191.71 330.10,193.46 330.78,193.40 C331.45,193.35 333.63,193.23 335.63,193.15 L 339.26 193.00 L 338.63 189.09 C338.29,186.94 337.73,184.46 337.40,183.59 C336.96,182.45 337.38,182.00 338.89,182.00 C340.66,182.00 341.00,182.60 341.00,185.73 C341.00,189.05 341.75,190.17 347.75,195.77 L 354.50 202.08 L 354.46 211.79 C354.43,220.26 354.07,222.29 351.61,227.67 C348.54,234.40 346.25,237.03 341.41,239.18 C341.70,238.89 341.77,238.44 341.46,237.93 ZM 290.83 263.69 C295.97,261.98 297.94,260.75 299.72,258.10 C300.81,256.48 301.73,254.65 301.95,253.71 C303.12,256.03 304.83,255.58 306.04,252.40 C307.29,249.11 311.51,248.97 310.63,252.25 C310.30,253.49 310.02,254.80 310.01,255.17 C309.99,256.37 302.55,260.48 300.91,260.20 C300.03,260.05 298.73,260.62 298.03,261.46 C297.33,262.31 295.69,263.00 294.38,263.00 C292.67,263.00 292.00,263.56 292.00,265.00 C292.00,266.14 292.53,266.78 293.25,266.91 C289.37,268.39 281.31,270.77 275.00,272.22 C271.61,273.00 262.20,273.49 250.50,273.49 C243.51,273.50 237.73,273.33 232.60,272.91 C232.81,272.92 233.02,272.91 233.21,272.91 C235.66,272.84 234.59,272.32 229.00,270.87 C215.42,267.35 208.10,264.88 203.01,262.10 C200.25,260.59 198.29,259.05 198.66,258.67 C199.69,257.64 203.80,257.87 204.50,259.00 C204.84,259.55 206.78,260.00 208.81,260.01 C210.84,260.02 214.65,260.67 217.28,261.47 C223.78,263.44 227.73,263.53 247.50,262.14 C256.85,261.49 266.40,261.12 268.73,261.34 C271.05,261.55 272.71,261.34 272.42,260.87 C271.72,259.73 274.10,259.78 275.93,260.94 C276.98,261.60 276.32,262.04 273.45,262.58 C269.83,263.25 269.70,263.39 271.76,264.31 C272.90,264.82 274.87,264.37 277.06,263.34 C275.27,264.35 273.62,265.13 272.48,265.42 C271.07,265.77 270.14,266.42 270.42,266.86 C271.16,268.07 283.34,266.18 290.83,263.69 ZM 362.00 332.12 L 362.00 342.00 L 358.00 342.00 C355.80,342.00 353.96,341.66 353.92,341.25 C353.47,337.06 353.23,333.00 352.94,324.52 L 352.61 314.54 L 355.89 313.60 C358.39,312.89 359.38,312.99 360.03,314.04 C360.74,315.20 361.46,315.15 364.47,313.71 C369.59,311.28 374.59,311.50 377.38,314.29 C379.41,316.32 379.75,317.91 380.34,328.37 C380.72,334.86 380.76,340.58 380.45,341.08 C380.14,341.59 378.12,342.00 375.97,342.00 L 372.07 342.00 L 371.78 331.25 L 371.50 320.50 L 368.18 320.18 C362.71,319.66 362.00,321.02 362.00,332.12 ZM 310.49 341.31 C306.19,343.35 304.35,343.38 300.78,341.44 C292.85,337.14 295.31,327.02 304.64,325.51 C310.07,324.63 312.08,324.38 312.65,323.34 C312.97,322.74 312.83,321.88 312.58,320.49 C312.55,320.32 312.52,320.14 312.49,319.96 C311.90,316.44 312.05,316.00 313.83,316.00 C319.43,316.00 322.00,320.08 322.00,328.96 C322.00,332.30 322.54,335.88 323.19,336.93 C324.11,338.41 324.11,339.17 323.16,340.31 C321.35,342.49 317.36,342.94 315.58,341.15 C314.19,339.76 313.69,339.78 310.49,341.31 ZM 263.12 334.08 L 262.50 341.50 L 251.98 341.78 C244.60,341.98 240.97,341.68 239.78,340.78 C238.32,339.67 238.07,336.94 237.88,320.00 L 237.67 300.50 L 241.30 300.19 C245.88,299.80 245.94,300.02 246.26,319.00 L 246.50 333.50 ZM 126.16 337.75 C124.88,341.79 124.62,342.00 120.91,342.00 C117.65,342.00 117.00,341.66 117.00,339.97 C117.00,336.71 122.86,322.44 124.98,320.52 C127.52,318.22 129.77,319.17 130.18,322.69 C130.48,325.30 130.81,325.50 134.99,325.50 C138.69,325.50 139.54,325.15 139.83,323.50 C140.48,319.91 141.63,319.86 145.46,323.28 C148.28,325.79 149.82,328.41 151.52,333.57 C152.77,337.38 153.45,340.87 153.03,341.32 C152.61,341.77 150.53,341.99 148.42,341.82 C144.95,341.53 144.50,341.17 143.89,338.16 C143.52,336.32 142.78,334.38 142.26,333.86 C141.73,333.33 138.20,333.04 134.40,333.20 L 127.50 333.50 ZM 288.38 341.49 C280.81,344.65 273.08,342.74 268.16,336.48 C264.91,332.35 265.05,322.24 268.40,319.09 C271.09,316.57 275.77,316.52 275.11,319.02 C273.84,323.77 274.35,324.50 278.96,324.50 C283.20,324.50 283.45,324.34 284.09,321.20 C285.01,316.74 285.66,316.30 288.81,318.06 C290.99,319.28 291.56,320.40 291.81,323.93 C292.02,326.75 291.66,328.60 290.81,329.14 C290.09,329.59 286.20,329.98 282.18,329.98 C275.79,330.00 274.90,330.22 275.19,331.72 C275.88,335.31 282.49,336.76 288.07,334.55 C289.14,334.12 290.02,334.75 290.82,336.51 C290.88,336.63 290.93,336.76 290.99,336.87 C291.63,338.27 291.97,339.01 291.77,339.56 C291.54,340.21 290.54,340.58 288.38,341.49 ZM 335.80 158.80 C333.95,160.65 330.19,160.22 329.01,158.03 C328.34,156.78 328.06,148.47 328.23,135.28 L 328.50 114.50 L 331.90 114.18 C333.94,113.98 335.62,114.38 336.13,115.18 C337.51,117.35 337.21,157.39 335.80,158.80 ZM 204.16 341.41 C200.12,343.51 197.18,343.41 193.31,341.05 C189.05,338.45 188.00,336.18 188.00,329.53 C188.00,325.27 188.39,323.79 189.64,323.31 C192.22,322.32 194.38,324.35 195.24,328.59 C196.03,332.52 199.02,336.00 201.61,336.00 C204.57,336.00 207.00,332.13 207.00,327.43 C207.00,322.25 208.37,319.00 210.56,319.00 C212.64,319.00 214.00,323.17 214.00,329.53 C214.00,333.91 214.38,335.13 216.00,336.00 C218.41,337.29 218.51,338.34 216.43,340.43 C214.62,342.23 209.92,342.52 208.31,340.91 C207.53,340.13 206.37,340.28 204.16,341.41 ZM 170.77 341.45 C166.21,343.36 164.29,343.35 160.70,341.40 C157.16,339.48 156.00,336.40 156.00,328.92 L 156.00 322.97 L 163.50 323.53 L 164.00 329.02 C164.49,334.38 164.57,334.51 167.82,334.82 C172.30,335.25 174.00,333.57 174.00,328.71 C174.00,324.06 176.21,320.98 179.02,321.72 C181.32,322.32 181.66,323.39 182.52,332.67 C183.13,339.21 183.01,339.92 181.16,340.92 C178.58,342.29 175.27,342.31 174.82,340.95 C174.59,340.28 173.16,340.45 170.77,341.45 ZM 349.90 175.62 C348.48,177.33 346.89,177.37 344.67,175.75 C343.13,174.62 342.99,172.36 343.23,153.50 L 343.50 132.50 L 350.50 132.50 L 350.77 153.37 C350.96,167.93 350.70,174.66 349.90,175.62 ZM 336.79 333.05 L 336.50 341.50 L 332.82 341.81 C329.16,342.11 329.14,342.09 328.46,337.60 C328.09,335.11 327.95,329.47 328.15,325.07 C328.58,315.47 330.22,312.87 334.57,314.85 C336.21,315.60 337.66,315.71 338.36,315.14 C338.99,314.64 341.41,313.91 343.75,313.53 C347.92,312.84 348.00,312.88 347.98,315.66 C347.96,319.66 347.02,320.72 342.78,321.51 C340.74,321.90 338.62,322.75 338.08,323.40 C337.53,324.06 336.96,328.40 336.79,333.05 ZM 364.77 165.89 L 364.50 185.50 L 361.99 185.79 C357.32,186.34 357.00,184.98 357.00,164.78 L 357.00 145.95 L 359.62 144.95 C364.75,143.00 365.07,144.29 364.77,165.89 ZM 252.00 279.79 C267.13,279.67 280.02,279.89 280.64,280.28 C280.99,280.50 281.71,280.44 282.67,280.17 C279.99,281.20 277.08,282.12 274.00,282.89 C264.89,285.19 248.24,286.14 237.80,284.97 C231.66,284.28 224.27,282.32 217.85,279.92 C219.57,280.41 221.05,280.63 222.00,280.46 C223.38,280.21 236.88,279.91 252.00,279.79 ZM 244.96 119.07 C243.71,121.41 241.69,121.54 239.57,119.43 C238.30,118.16 238.00,115.30 238.00,104.36 C238.00,96.94 238.47,90.00 239.04,88.93 C240.20,86.75 243.00,86.40 244.80,88.20 C246.32,89.72 246.46,116.27 244.96,119.07 ZM 322.00 139.57 C322.00,145.86 321.64,151.00 321.20,151.00 C320.76,151.00 318.74,149.29 316.70,147.21 C313.09,143.50 313.00,143.24 313.00,135.78 C313.00,128.02 314.26,125.00 317.50,125.00 C321.11,125.00 322.00,127.87 322.00,139.57 ZM 260.50 108.00 C260.50,119.75 260.38,120.52 258.49,120.79 C257.39,120.95 255.69,120.49 254.71,119.78 C253.15,118.64 252.97,117.05 253.22,106.99 L 253.50 95.50 L 260.50 95.50 ZM 228.53 122.55 C226.62,123.35 224.83,124.00 224.55,124.00 C223.23,124.00 222.84,118.15 223.63,110.21 C224.48,101.71 224.56,101.51 227.00,101.77 C230.94,102.19 232.00,104.62 232.00,113.24 L 232.00 121.10 ZM 291.56 119.26 C291.97,124.80 291.89,128.98 291.39,128.95 C290.90,128.92 288.81,128.20 286.75,127.34 L 283.00 125.79 L 283.00 117.59 C283.00,109.22 283.85,107.00 287.08,107.00 C290.00,107.00 290.83,109.26 291.56,119.26 ZM 229.79 332.26 L 229.50 340.50 L 222.00 341.12 L 222.00 332.49 C222.00,323.13 223.00,320.00 226.00,320.00 C229.06,320.00 230.10,323.38 229.79,332.26 ZM 377.92 175.60 C376.39,177.44 374.51,177.37 372.53,175.39 C370.16,173.02 370.73,157.19 373.25,155.61 C374.52,154.81 375.48,154.81 376.75,155.61 C378.16,156.50 378.56,158.42 378.79,165.45 C378.98,171.04 378.66,174.70 377.92,175.60 ZM 278.34 226.07 C274.42,223.68 273.15,220.34 275.50,218.62 C277.44,217.21 290.79,217.39 292.26,218.86 C293.90,220.50 292.58,223.37 289.10,225.71 C284.96,228.50 282.47,228.58 278.34,226.07 ZM 208.92 225.08 C205.55,221.71 205.31,220.52 207.75,219.45 C210.13,218.40 222.48,218.06 223.99,219.00 C225.93,220.19 224.17,223.93 220.66,226.07 C216.10,228.85 212.38,228.53 208.92,225.08 ZM 215.32 125.72 C214.32,126.88 212.52,128.11 211.33,128.45 C208.26,129.34 207.49,126.13 209.03,118.88 C210.51,111.91 212.51,109.61 214.61,112.48 C215.37,113.53 216.01,115.53 216.01,116.94 C216.02,118.35 216.28,120.43 216.58,121.56 C216.91,122.78 216.40,124.47 215.32,125.72 ZM 305.80 130.35 C305.96,134.01 305.73,136.99 305.30,136.98 C304.86,136.97 303.02,136.02 301.20,134.85 C298.16,132.91 297.92,132.38 298.20,128.22 C298.54,123.04 300.80,120.76 303.75,122.61 C305.07,123.44 305.57,125.33 305.80,130.35 ZM 276.00 118.07 C276.00,121.33 275.66,123.96 275.25,123.91 C274.84,123.86 273.04,123.40 271.25,122.88 C268.21,122.00 268.00,121.65 268.00,117.51 C268.00,112.63 270.32,110.33 274.04,111.51 C275.70,112.04 276.00,113.05 276.00,118.07 ZM 305.67 335.33 C306.75,336.42 310.51,336.09 311.80,334.80 C313.92,332.68 313.24,330.00 310.58,330.00 C309.25,330.00 307.45,330.27 306.58,330.61 C304.99,331.22 304.43,334.10 305.67,335.33 ZM 370.42 203.09 C368.06,205.69 365.47,207.13 364.63,206.30 C363.17,204.84 364.20,203.13 367.15,202.10 C371.75,200.50 372.55,200.74 370.42,203.09 ZM 295.82 265.59 C295.94,265.44 296.06,265.28 296.17,265.10 C297.53,262.92 300.00,263.41 300.00,265.86 C300.00,265.95 299.99,266.04 299.99,266.13 C299.83,264.92 297.31,264.64 295.82,265.59 ZM 225.96 272.17 C217.89,271.00 211.06,268.92 202.60,265.45 C209.61,268.32 218.93,270.94 225.96,272.17 ZM 287.02 255.19 C287.01,255.28 287.00,255.36 287.00,255.44 C287.00,256.11 285.52,257.54 283.46,259.12 C284.90,257.87 286.16,256.51 287.02,255.19 ZM 300.44 250.46 C299.39,249.41 297.95,248.52 296.59,248.16 C298.09,248.33 299.45,249.09 300.44,250.46 ZM 204.92 273.39 C204.26,272.87 203.72,272.37 203.32,271.88 C202.74,271.19 202.00,269.56 201.56,268.07 C202.04,269.60 203.00,271.43 203.83,272.35 C204.13,272.69 204.50,273.04 204.92,273.39 ZM 299.93 266.69 C299.75,267.77 299.25,268.87 298.46,269.98 C299.17,268.73 299.73,267.46 299.93,266.69 ZM 292.14 249.25 C291.58,249.60 291.03,250.01 290.50,250.46 C291.03,249.98 291.58,249.58 292.14,249.25 Z" fill="rgb(49,174,224)" data-index="1"></path>
<path d="M 181.43 245.87 C176.57,236.47 174.41,220.50 176.05,206.10 C177.75,191.11 179.91,184.29 185.60,175.94 C186.76,174.24 187.88,172.70 189.01,171.28 C185.49,175.89 182.67,181.04 182.26,184.13 C181.97,186.29 181.42,188.24 181.04,188.47 C180.66,188.71 180.50,195.29 180.68,203.10 C180.96,215.67 181.28,217.93 183.46,222.68 C187.27,231.01 191.88,234.63 204.50,239.20 C208.90,240.79 214.07,242.84 216.00,243.75 C217.93,244.67 219.84,245.33 220.25,245.21 C220.66,245.09 221.00,245.48 221.00,246.06 C221.00,246.64 221.45,246.84 222.00,246.50 C222.55,246.16 223.00,246.31 223.00,246.82 C223.00,247.34 223.79,248.01 224.75,248.32 C225.71,248.62 228.52,249.65 231.00,250.60 C233.48,251.55 238.43,252.87 242.00,253.53 C245.57,254.19 249.62,254.57 251.00,254.37 C252.38,254.17 256.87,253.58 260.98,253.06 C265.10,252.53 268.63,251.62 268.82,251.04 C269.01,250.46 269.60,250.25 270.12,250.57 C270.64,250.89 273.41,249.84 276.28,248.23 C279.15,246.62 283.98,244.50 287.00,243.53 C290.02,242.55 292.93,241.36 293.45,240.88 C293.97,240.39 295.10,240.00 295.95,240.00 C298.07,240.00 307.16,235.06 310.67,232.00 C313.93,229.16 319.09,222.47 319.40,220.69 C319.52,220.04 320.37,218.06 321.30,216.30 C324.39,210.48 322.86,195.01 318.59,183.84 C321.79,192.01 323.30,201.84 323.39,214.00 C323.50,227.57 322.09,237.72 319.32,243.25 L 317.95 246.00 L 324.54 246.00 C331.17,246.00 334.82,244.87 336.31,242.34 C336.61,241.83 337.66,241.05 338.95,240.34 C337.62,241.08 336.59,241.91 336.38,242.45 C335.59,244.51 328.59,247.00 323.60,247.00 C319.54,247.00 318.91,247.39 314.43,252.63 C311.79,255.73 307.79,259.56 305.56,261.16 C303.66,262.51 301.25,265.19 299.72,267.56 C299.81,267.27 299.88,266.98 299.93,266.69 C299.97,266.52 300.00,266.36 300.00,266.25 C300.00,266.21 299.99,266.17 299.99,266.13 C299.99,266.04 300.00,265.95 300.00,265.86 C300.00,263.41 297.53,262.92 296.17,265.10 C296.06,265.28 295.94,265.44 295.82,265.59 C295.69,265.68 295.56,265.77 295.45,265.88 C295.20,266.11 294.41,266.47 293.25,266.91 C292.53,266.78 292.00,266.14 292.00,265.00 C292.00,263.56 292.67,263.00 294.38,263.00 C295.69,263.00 297.33,262.31 298.03,261.46 C298.73,260.62 300.03,260.05 300.91,260.20 C302.55,260.48 309.99,256.37 310.01,255.17 C310.02,254.80 310.30,253.49 310.63,252.25 C311.51,248.97 307.29,249.11 306.04,252.40 C304.83,255.58 303.12,256.03 301.95,253.71 C301.98,253.57 302.00,253.45 302.00,253.35 C302.00,252.45 301.37,251.39 300.44,250.46 C299.45,249.09 298.09,248.33 296.59,248.16 C296.19,248.06 295.80,248.00 295.42,248.00 C294.51,248.00 293.33,248.49 292.14,249.25 C291.58,249.58 291.03,249.98 290.50,250.46 C288.70,251.96 287.19,253.84 287.02,255.19 C286.16,256.51 284.90,257.87 283.46,259.12 C281.58,260.56 279.22,262.12 277.06,263.34 C274.87,264.37 272.90,264.82 271.76,264.31 C269.70,263.39 269.83,263.25 273.45,262.58 C276.32,262.04 276.98,261.60 275.93,260.94 C274.10,259.78 271.72,259.73 272.42,260.87 C272.71,261.34 271.05,261.55 268.73,261.34 C266.40,261.12 256.85,261.49 247.50,262.14 C227.73,263.53 223.78,263.44 217.28,261.47 C214.65,260.67 210.84,260.02 208.81,260.01 C206.78,260.00 204.84,259.55 204.50,259.00 C203.80,257.87 199.69,257.64 198.66,258.67 C198.29,259.05 200.25,260.59 203.01,262.10 C208.10,264.88 215.42,267.35 229.00,270.87 C234.59,272.32 235.66,272.84 233.21,272.91 C233.02,272.91 232.81,272.92 232.60,272.91 C230.27,272.72 228.07,272.48 225.96,272.17 C218.93,270.94 209.61,268.32 202.60,265.45 C200.91,264.76 200.78,264.99 201.43,267.59 C201.47,267.74 201.51,267.90 201.56,268.07 C201.70,268.55 201.88,269.04 202.06,269.51 C201.91,269.28 201.78,269.05 201.67,268.83 C200.62,266.84 198.80,264.76 197.63,264.22 C196.46,263.67 191.87,259.84 187.43,255.69 C181.28,249.95 178.42,247.98 175.43,247.42 C169.97,246.40 165.79,244.53 163.63,242.14 C162.92,241.36 161.68,240.54 160.46,240.00 C161.21,240.07 162.58,240.98 163.57,242.08 C166.13,244.91 171.44,247.00 176.06,247.00 C178.16,247.00 180.16,247.45 180.50,248.00 C182.05,250.52 182.87,248.65 181.43,245.87 ZM 158.61 239.40 C154.70,238.26 149.57,232.14 147.12,225.59 C142.82,214.10 145.30,199.81 153.18,190.64 C155.01,188.52 157.21,185.59 158.08,184.14 C158.95,182.69 160.47,181.34 161.46,181.15 C162.97,180.86 163.16,181.27 162.62,183.65 C161.93,186.68 162.20,186.47 165.97,181.10 C166.77,179.95 168.91,178.52 170.72,177.93 C174.82,176.57 175.01,175.02 171.00,175.53 C169.35,175.73 168.00,175.74 168.00,175.54 C168.00,175.35 169.18,172.90 170.63,170.12 C178.45,155.04 203.61,137.75 225.90,132.14 C237.92,129.11 250.69,128.54 263.44,130.36 C259.10,129.81 257.99,130.15 254.63,131.83 C251.90,133.19 248.41,134.00 245.25,134.00 C237.86,134.00 226.99,136.25 216.58,139.76 C212.86,141.00 209.16,142.44 205.50,144.08 C199.87,146.62 188.34,155.76 182.43,162.37 C177.22,168.19 172.66,171.97 174.57,168.89 C175.04,168.13 174.60,168.14 173.14,168.92 C171.37,169.87 169.00,172.92 169.00,174.26 C169.00,174.48 170.41,174.45 172.14,174.19 C172.37,174.16 172.58,174.13 172.78,174.09 C173.64,173.95 174.23,173.86 174.55,174.11 C175.23,174.65 174.63,176.80 172.73,183.57 C172.53,184.28 172.32,185.05 172.09,185.87 C169.66,194.57 168.00,206.84 168.00,216.05 C168.00,221.68 167.66,222.97 165.66,224.85 C162.97,227.38 160.43,226.89 159.37,223.66 C158.99,222.47 158.39,217.45 158.05,212.50 L 157.43 203.50 L 156.62 212.61 C155.81,221.70 155.80,221.72 152.40,223.34 C150.53,224.24 149.00,225.58 149.00,226.33 C149.00,229.73 154.82,237.23 158.61,239.40 ZM 216.46 336.24 C217.71,336.94 218.16,337.65 217.80,338.59 C218.17,337.59 217.58,336.84 216.00,336.00 C214.38,335.13 214.00,333.91 214.00,329.53 C214.00,323.17 212.64,319.00 210.56,319.00 C208.37,319.00 207.00,322.25 207.00,327.43 C207.00,329.72 206.42,331.81 205.49,333.35 C205.90,332.23 206.00,330.41 206.00,327.07 C206.00,319.94 205.42,319.00 200.99,319.00 C197.64,319.00 196.00,321.79 196.00,327.51 C196.00,329.31 196.06,330.57 196.26,331.53 C195.80,330.62 195.44,329.62 195.24,328.59 C194.38,324.35 192.22,322.32 189.64,323.31 C188.39,323.79 188.00,325.27 188.00,329.53 C188.00,332.88 188.26,335.11 189.07,336.84 C187.66,334.44 187.00,331.38 187.00,327.45 C187.00,316.75 192.46,311.11 201.60,312.36 L 205.91 312.95 L 206.20 306.83 C206.45,301.64 206.88,300.42 209.00,298.87 C210.41,297.83 212.37,297.26 213.50,297.56 C215.42,298.08 215.49,298.82 215.21,316.74 C214.95,332.70 215.13,335.49 216.46,336.24 ZM 155.80 175.80 C155.14,176.46 153.65,177.00 152.50,177.00 C148.27,177.00 148.00,175.62 148.00,154.00 C148.00,139.31 148.34,133.06 149.20,132.20 C151.04,130.36 154.81,130.77 155.96,132.93 C157.49,135.79 157.35,174.25 155.80,175.80 ZM 169.77 159.16 C166.71,161.11 161.97,159.47 163.50,157.00 C163.84,156.45 163.60,156.00 162.97,156.00 C161.53,156.00 162.32,115.28 163.79,113.81 C164.32,113.28 166.05,112.99 167.63,113.17 L 170.50 113.50 L 170.77 135.93 C170.98,153.20 170.75,158.54 169.77,159.16 ZM 138.77 297.86 C139.84,298.52 146.30,317.30 150.18,329.96 C148.92,327.03 147.54,325.12 145.46,323.28 C141.63,319.86 140.48,319.91 139.83,323.50 C139.54,325.15 138.69,325.50 134.99,325.50 C132.27,325.50 131.18,325.42 130.66,324.63 C131.47,324.85 132.94,325.00 134.61,325.00 C134.95,325.00 135.27,325.00 135.57,325.01 C137.04,325.02 137.95,325.03 138.39,324.58 C139.13,323.82 138.54,321.76 136.94,316.24 C136.75,315.58 136.54,314.86 136.32,314.08 L 134.76 308.66 L 132.39 316.08 C131.45,319.04 130.63,321.78 130.25,323.22 C130.22,323.06 130.20,322.88 130.18,322.69 C129.77,319.17 127.52,318.22 124.98,320.52 C123.10,322.22 118.28,333.63 117.21,338.46 C117.48,337.08 118.06,335.16 118.93,332.50 C127.01,307.63 130.32,299.03 132.02,298.49 C135.51,297.39 137.68,297.18 138.77,297.86 ZM 140.33 185.75 C139.39,186.44 138.34,187.00 138.00,187.00 C137.66,187.00 136.61,186.44 135.67,185.75 C134.14,184.63 133.98,182.45 134.23,165.10 C134.47,147.91 134.70,145.59 136.25,144.61 C137.53,143.81 138.47,143.81 139.75,144.61 C141.30,145.59 141.53,147.91 141.77,165.10 C142.02,182.45 141.86,184.63 140.33,185.75 ZM 230.00 312.17 L 230.00 342.00 L 221.00 342.00 L 221.00 328.06 C221.00,318.64 221.37,313.89 222.15,313.41 C222.78,313.02 224.81,312.58 226.65,312.43 ZM 182.28 325.95 C182.39,328.58 182.47,330.73 182.50,332.48 C181.66,323.38 181.30,322.31 179.02,321.72 C176.21,320.98 174.00,324.06 174.00,328.71 C174.00,333.57 172.30,335.25 167.82,334.82 C164.57,334.51 164.49,334.38 164.00,329.02 L 163.50 323.53 L 156.00 322.97 L 156.00 328.92 C156.00,334.91 156.74,338.08 158.86,340.09 C155.37,337.56 154.94,334.84 155.22,324.25 L 155.50 313.50 L 159.75 312.93 C162.09,312.62 164.06,312.62 164.12,312.93 C164.19,313.24 164.53,318.23 164.87,324.00 C165.49,334.36 165.53,334.50 168.09,334.80 C169.51,334.97 171.18,334.49 171.80,333.75 C172.41,333.00 173.05,328.14 173.21,322.95 L 173.50 313.50 L 177.62 312.95 L 181.73 312.40 ZM 186.83 136.63 C186.48,143.71 186.30,144.17 182.43,148.04 C180.22,150.26 178.09,151.75 177.70,151.37 C176.60,150.26 176.88,129.08 178.04,126.93 C179.49,124.21 184.57,124.33 186.07,127.13 C186.74,128.38 187.05,132.29 186.83,136.63 ZM 229.79 332.26 C230.10,323.38 229.06,320.00 226.00,320.00 C223.00,320.00 222.00,323.13 222.00,332.49 L 222.00 341.12 L 229.50 340.50 ZM 126.92 175.60 C126.28,176.37 124.97,177.00 124.00,177.00 C120.71,177.00 119.91,174.55 120.21,165.45 C120.44,158.42 120.84,156.50 122.25,155.61 C123.52,154.81 124.48,154.81 125.75,155.61 C127.16,156.50 127.56,158.42 127.79,165.45 C127.98,171.04 127.66,174.70 126.92,175.60 ZM 198.02 135.37 C195.83,136.82 193.88,138.00 193.69,138.00 C193.03,138.00 192.88,125.95 193.51,123.96 C193.93,122.64 195.03,122.00 196.87,122.00 C200.66,122.00 202.00,123.71 202.00,128.57 C202.00,132.32 201.60,133.00 198.02,135.37 ZM 322.00 327.76 C322.00,331.76 322.54,335.88 323.19,336.93 C322.54,335.88 322.00,332.30 322.00,328.96 C322.00,320.08 319.43,316.00 313.83,316.00 C312.05,316.00 311.90,316.44 312.49,319.96 C312.52,320.14 312.55,320.32 312.58,320.49 C312.69,321.13 312.79,321.66 312.82,322.10 C312.71,321.83 312.55,321.53 312.34,321.20 C311.20,319.41 307.44,319.05 302.79,320.29 C300.71,320.85 299.85,320.60 299.11,319.21 C297.35,315.91 299.31,314.92 308.77,314.30 L 317.86 313.71 L 319.92 317.11 C321.51,319.71 321.99,322.18 322.00,327.76 ZM 291.50 328.16 C291.84,327.24 291.95,325.80 291.81,323.93 C291.56,320.40 290.99,319.28 288.81,318.06 C285.66,316.30 285.01,316.74 284.09,321.20 C283.98,321.76 283.87,322.23 283.76,322.62 C283.78,322.52 283.80,322.42 283.81,322.32 C284.20,319.61 281.34,317.92 278.32,319.06 C276.63,319.70 275.02,321.56 274.58,322.98 C274.38,322.16 274.61,320.91 275.11,319.02 C275.77,316.52 271.09,316.57 268.40,319.09 C267.17,320.25 266.37,322.36 266.02,324.76 C266.10,320.49 266.58,319.69 268.91,317.73 C274.30,313.19 288.51,313.34 290.98,317.97 C291.54,319.01 292.00,321.87 292.00,324.33 C292.00,326.10 291.94,327.32 291.50,328.16 ZM 244.96 119.07 C246.46,116.27 246.32,89.72 244.80,88.20 C243.00,86.40 240.20,86.75 239.04,88.93 C238.48,89.96 238.03,96.48 238.00,103.62 C238.00,103.10 238.00,102.57 238.00,102.01 C238.00,93.29 238.27,85.45 238.61,84.58 C239.49,82.29 244.68,82.54 245.96,84.93 C246.55,86.03 247.00,93.59 247.00,102.36 C247.00,115.12 246.72,118.14 245.43,119.43 C244.56,120.29 243.25,121.00 242.50,121.00 C242.25,121.00 241.95,120.92 241.61,120.79 C242.94,121.21 244.13,120.63 244.96,119.07 ZM 263.12 334.08 L 246.50 333.50 L 246.26 319.00 C245.94,300.02 245.88,299.80 241.30,300.19 L 237.67 300.50 L 237.75 307.56 C237.54,304.78 237.17,304.00 236.56,304.00 C235.77,304.00 234.86,303.59 234.55,303.08 C233.59,301.54 236.97,299.00 239.99,299.00 C241.55,299.00 243.02,298.44 243.25,297.75 C243.58,296.78 244.04,296.80 245.34,297.87 C246.77,299.05 247.00,301.60 247.00,316.08 L 247.00 332.92 L 263.50 333.50 L 263.15 337.00 C263.01,338.38 262.79,339.75 262.58,340.57 ZM 230.42 304.70 C228.64,307.52 224.17,308.17 221.95,305.95 C220.32,304.32 220.21,303.63 221.20,301.47 C222.17,299.32 222.94,298.95 225.83,299.20 C229.91,299.55 232.05,302.11 230.42,304.70 ZM 280.19 194.10 C280.45,189.75 280.27,189.32 278.82,190.10 C275.95,191.63 274.86,191.20 276.19,189.07 C277.56,186.88 281.17,185.00 284.01,185.00 C285.07,185.00 287.52,186.40 289.47,188.10 C292.18,190.48 293.00,191.98 293.00,194.52 C293.00,199.10 292.19,200.81 289.20,202.39 C295.36,199.08 293.19,189.00 286.26,189.00 C282.99,189.00 280.82,190.87 280.19,194.10 ZM 216.44 120.95 C216.20,119.78 216.02,118.12 216.01,116.94 C216.01,115.53 215.37,113.53 214.61,112.48 C212.51,109.61 210.51,111.91 209.03,118.88 C208.46,121.56 208.20,123.69 208.27,125.27 C208.05,123.29 208.06,120.32 208.20,116.00 L 208.50 107.50 L 211.76 107.19 C215.60,106.82 215.70,107.03 216.29,116.80 C216.40,118.48 216.45,119.83 216.44,120.95 ZM 222.12 188.88 C226.93,193.69 227.35,197.79 223.37,200.93 C226.62,198.37 226.81,194.49 223.83,191.31 C220.86,188.16 216.70,188.29 214.07,191.63 C212.83,193.22 212.17,194.59 212.12,195.90 C211.81,194.05 212.14,192.26 213.20,191.20 C215.09,189.31 212.60,187.25 210.52,188.98 C209.66,189.70 208.71,190.05 208.42,189.76 C207.44,188.77 213.25,185.00 215.75,185.00 C217.30,185.00 219.69,186.46 222.12,188.88 ZM 136.00 205.17 C136.00,206.18 135.39,207.00 134.64,207.00 C133.11,207.00 124.00,199.29 124.00,197.99 C124.00,197.52 126.70,198.54 130.00,200.24 C134.03,202.32 136.00,203.94 136.00,205.17 ZM 229.45 99.34 C230.62,100.20 231.13,101.62 231.49,106.09 C230.85,103.12 229.51,102.04 227.00,101.77 C224.56,101.51 224.48,101.71 223.63,110.21 C223.23,114.29 223.13,117.82 223.32,120.28 C222.48,113.87 222.88,101.26 224.57,99.57 C226.49,97.65 227.11,97.63 229.45,99.34 ZM 337.55 184.04 C337.88,185.15 338.33,187.24 338.63,189.09 L 339.26 193.00 L 335.63 193.15 C333.63,193.23 331.45,193.35 330.78,193.40 C330.10,193.46 329.25,191.71 328.87,189.50 C328.52,187.47 327.62,184.05 326.80,181.59 C327.33,183.01 327.95,184.72 328.49,186.25 C330.12,190.86 330.29,191.00 334.21,191.00 L 338.26 191.00 L 337.75 186.50 C337.64,185.47 337.56,184.66 337.55,184.04 ZM 268.66 175.52 C266.06,172.92 267.61,171.06 271.83,171.74 C273.75,172.05 275.30,172.34 276.52,172.63 C276.27,172.58 276.01,172.53 275.74,172.48 C272.75,171.92 272.00,172.08 272.00,173.31 C272.00,174.15 272.56,175.06 273.25,175.34 C275.41,176.21 279.86,176.04 280.46,175.07 C280.50,175.02 280.50,175.05 280.50,175.07 C280.50,177.23 270.74,177.60 268.66,175.52 ZM 336.35 315.43 C335.81,315.33 335.21,315.14 334.57,314.85 C330.22,312.87 328.58,315.47 328.15,325.07 C328.06,326.92 328.04,328.99 328.07,330.95 C328.02,329.46 328.00,327.89 328.00,326.38 C328.00,320.79 327.60,317.00 327.00,317.00 C325.09,317.00 326.01,315.32 328.55,314.16 C332.14,312.52 334.74,312.72 335.85,314.70 C336.02,315.01 336.19,315.25 336.35,315.43 ZM 353.22 200.88 L 347.75 195.77 C341.75,190.17 341.00,189.05 341.00,185.73 C341.00,182.68 340.67,182.03 339.01,182.00 C339.05,182.00 339.09,182.00 339.12,182.00 C340.45,182.00 341.00,182.72 341.00,184.46 C341.00,186.13 342.92,188.86 346.90,192.90 C349.49,195.52 351.93,198.63 353.22,200.88 ZM 155.36 174.50 C155.97,172.92 154.36,172.54 151.58,173.61 C149.19,174.53 149.69,176.00 152.39,176.00 C153.71,176.00 155.05,175.32 155.36,174.50 ZM 179.81 148.87 C180.82,147.54 180.77,147.13 179.53,146.65 C178.40,146.21 178.00,146.75 178.00,148.70 C178.00,150.15 178.13,151.15 178.28,150.92 C178.44,150.69 179.13,149.77 179.81,148.87 ZM 354.31 217.71 C354.42,216.11 354.45,214.21 354.46,211.79 L 354.49 204.39 C355.18,207.95 355.07,212.90 354.31,217.71 ZM 315.77 177.86 C308.08,164.45 293.93,154.84 274.61,149.90 C283.90,151.96 291.87,155.48 299.62,160.74 C306.68,165.53 311.98,171.06 315.77,177.86 ZM 247.64 341.84 C248.92,341.84 250.36,341.82 251.98,341.78 L 261.72 341.52 C259.66,341.99 253.10,342.07 247.64,341.84 ZM 225.65 149.94 C218.37,151.82 208.84,155.94 201.87,160.00 C203.84,158.80 206.01,157.64 208.46,156.43 C214.65,153.39 219.97,151.31 225.65,149.94 ZM 238.02 328.95 C238.23,338.02 238.63,339.90 239.78,340.78 C239.99,340.94 240.28,341.08 240.65,341.20 C240.23,341.12 239.92,341.02 239.75,340.92 C238.45,340.16 238.10,338.64 238.02,328.95 ZM 300.86 326.75 C298.05,328.24 296.39,330.72 296.07,333.32 C296.19,331.04 297.29,328.86 299.41,327.47 C299.76,327.24 300.26,326.99 300.86,326.75 ZM 310.93 149.33 C304.43,144.45 295.51,139.74 286.27,136.22 C289.04,137.25 291.79,138.40 294.50,139.67 C301.15,142.77 306.39,145.79 310.93,149.33 ZM 327.05 167.68 C324.51,163.91 320.95,159.23 317.79,155.63 C320.58,158.61 323.20,162.00 325.92,166.00 C326.33,166.60 326.70,167.16 327.05,167.68 ZM 291.00 276.24 C293.43,274.79 295.70,273.19 297.05,271.86 C295.76,273.45 294.11,274.60 291.00,276.24 ZM 232.27 120.99 L 232.00 121.10 L 232.00 115.45 ZM 278.06 330.07 C279.07,330.01 280.42,329.99 282.18,329.98 C285.36,329.98 288.46,329.74 289.98,329.41 C288.53,329.94 286.06,330.00 281.84,330.00 C280.25,330.00 279.01,330.02 278.06,330.07 ZM 199.06 335.01 C201.02,336.27 201.80,336.18 204.07,334.96 C204.16,334.91 204.25,334.86 204.34,334.80 C203.54,335.56 202.60,336.00 201.61,336.00 C200.77,336.00 199.89,335.64 199.06,335.01 ZM 312.30 323.75 C311.48,324.42 309.54,324.72 305.44,325.38 C305.94,325.27 306.43,325.18 306.91,325.10 C309.76,324.65 311.46,324.27 312.30,323.75 ZM 266.28 332.12 C266.67,333.84 267.29,335.37 268.16,336.48 C267.14,335.18 266.57,333.99 266.28,332.12 ZM 325.23 175.72 C325.42,175.01 326.29,175.00 327.97,175.00 C326.40,175.00 325.54,175.15 325.23,175.72 ZM 274.00 282.91 C265.32,285.08 249.79,286.05 239.38,285.13 C249.85,286.05 265.33,285.08 274.00,282.89 C274.49,282.77 274.98,282.64 275.46,282.51 C274.95,282.66 274.46,282.79 274.00,282.91 ZM 215.32 125.72 L 215.33 125.70 C215.26,125.79 215.19,125.88 215.12,125.96 C214.35,126.85 212.96,127.81 211.81,128.28 C212.97,127.80 214.45,126.73 215.32,125.72 ZM 170.77 341.45 C167.61,342.77 165.76,343.20 163.78,342.68 C165.79,343.16 167.67,342.75 170.77,341.45 ZM 310.49 341.31 C307.60,342.68 305.87,343.17 303.98,342.73 C305.88,343.13 307.65,342.66 310.49,341.31 ZM 211.42 128.43 C211.37,128.44 211.33,128.46 211.28,128.47 C210.29,128.76 209.57,128.69 209.07,128.03 C209.59,128.60 210.34,128.74 211.33,128.45 C211.36,128.45 211.39,128.44 211.42,128.43 ZM 328.42 337.30 C328.43,337.40 328.45,337.50 328.46,337.60 C328.60,338.53 328.71,339.27 328.84,339.85 C328.77,339.58 328.70,339.27 328.64,338.93 C328.56,338.55 328.49,337.99 328.42,337.30 ZM 176.93 341.96 C177.89,341.99 179.04,341.80 180.15,341.38 C179.14,341.81 177.94,342.01 176.93,341.96 ZM 224.59 124.00 C224.91,123.96 226.12,123.53 227.55,122.95 C226.04,123.56 224.83,124.00 224.64,124.00 C224.62,124.00 224.61,124.00 224.59,124.00 ZM 153.07 341.32 C152.74,341.66 151.48,341.87 149.97,341.88 C151.47,341.87 152.71,341.66 153.03,341.32 C153.07,341.28 153.09,341.21 153.11,341.13 C153.11,341.23 153.10,341.29 153.07,341.32 ZM 329.86 172.28 C329.53,171.61 329.06,170.81 328.50,169.90 C329.10,170.86 329.55,171.64 329.86,172.28 ZM 332.40 341.84 C332.53,341.83 332.67,341.82 332.82,341.81 L 336.50 341.50 L 332.89 341.80 C332.72,341.82 332.55,341.83 332.40,341.84 ZM 346.78 235.57 C347.25,235.08 347.70,234.54 348.13,233.95 C347.70,234.54 347.25,235.08 346.78,235.57 Z" fill="rgb(139,145,218)" data-index="2"></path>

</g>
</svg>